# Blender v2.83.12 OBJ File: ''
# www.blender.org
mtllib Clouds.mtl
o Skybox.001_Cube.003
v -1.963856 1.350500 0.412531
v -1.861322 1.350500 0.800450
v -1.691117 1.350500 1.154148
v 1.445491 1.350500 1.456858
v 1.445491 1.350500 -1.441929
v -1.453296 1.350500 -1.441929
v -1.453296 1.350500 1.456858
v -1.998181 1.350500 0.007465
v -1.963856 1.350500 -0.397602
v -1.861323 1.350500 -0.785521
v -1.691117 1.350500 -1.139219
v -1.150586 1.350500 -1.679750
v -0.796888 1.350499 -1.849955
v -0.408969 1.350499 -1.952489
v -0.003902 1.350499 -1.986814
v 0.401164 1.350499 -1.952490
v 0.789083 1.350499 -1.849956
v 1.142781 1.350500 -1.679750
v 1.683312 1.350500 -1.139219
v 1.853517 1.350500 -0.785521
v 1.956051 1.350500 -0.397602
v 1.990376 1.350500 0.007465
v 1.956052 1.350500 0.412531
v 1.853518 1.350500 0.800450
v 1.683312 1.350500 1.154148
v 1.142781 1.350500 1.694679
v 0.789083 1.350500 1.864884
v 0.401164 1.350500 1.967418
v -0.003902 1.350500 2.001743
v -0.408969 1.350500 1.967419
v -0.796888 1.350500 1.864885
v -1.150586 1.350500 1.694679
v -1.505013 -0.004827 1.508576
v -1.505013 -0.004827 -1.493646
v 1.497208 -0.004827 -1.493646
v 1.497208 -0.004827 1.508576
v -1.751321 -0.004827 1.195065
v -1.927599 -0.004827 0.828745
v -2.033792 -0.004827 0.426985
v -2.069341 -0.004827 0.007465
v -2.033792 -0.004827 -0.412056
v -1.927600 -0.004827 -0.813816
v -1.751321 -0.004827 -1.180135
v -1.191502 -0.004827 -1.739954
v -0.825183 -0.004827 -1.916232
v -0.423423 -0.004827 -2.022425
v -0.003902 -0.004827 -2.057974
v 0.415618 -0.004827 -2.022425
v 0.817378 -0.004827 -1.916232
v 1.183698 -0.004827 -1.739954
v 1.743516 -0.004827 -1.180135
v 1.919794 -0.004827 -0.813816
v 2.025987 -0.004827 -0.412056
v 2.061537 -0.004827 0.007465
v 2.025987 -0.004827 0.426985
v 1.919795 -0.004827 0.828746
v 1.743516 -0.004827 1.195065
v 1.183698 -0.004827 1.754883
v 0.817378 -0.004827 1.931162
v 0.415618 -0.004827 2.037354
v -0.003902 -0.004827 2.072904
v -0.423423 -0.004827 2.037354
v -0.825183 -0.004827 1.931162
v -1.191502 -0.004827 1.754883
v -0.819183 0.282579 -1.902178
v -1.182826 0.282579 -1.727187
v 0.412553 0.282579 -2.007595
v -0.003902 0.282579 -2.042884
v -1.494046 0.282579 -1.482679
v -2.018962 0.282579 0.423920
v -1.913545 0.282579 0.822745
v -1.913545 0.282579 -0.807816
v -2.018962 0.282579 -0.408991
v 0.811378 0.282579 1.917107
v 1.175021 0.282579 1.742116
v -0.420358 0.282579 2.022524
v -0.003902 0.282579 2.057814
v 1.486241 0.282579 1.497609
v 1.486241 0.282579 -1.482679
v 1.175021 0.282579 -1.727187
v 2.011157 0.282579 -0.408991
v 1.905740 0.282579 -0.807816
v 1.905740 0.282579 0.822745
v 2.011157 0.282579 0.423920
v -0.420358 0.282579 -2.007594
v 0.811378 0.282579 -1.902178
v -1.738554 0.282579 1.186388
v -1.494046 0.282579 1.497609
v -1.182826 0.282579 1.742117
v -2.054251 0.282579 0.007465
v 0.412553 0.282579 2.022524
v -0.819183 0.282579 1.917108
v 1.730749 0.282579 -1.171459
v 2.046447 0.282579 0.007465
v -1.738554 0.282579 -1.171459
v 1.730749 0.282579 1.186388
v -0.808035 0.816539 -1.876067
v 0.406859 0.816539 -1.980042
v -1.991409 0.816539 0.418226
v -1.887434 0.816539 -0.796668
v 0.800230 0.816540 1.890996
v -0.414663 0.816540 1.994971
v 1.465866 0.816539 -1.462304
v 1.983604 0.816539 -0.403296
v 1.879629 0.816540 0.811598
v -1.473671 0.816540 1.477233
v -1.166706 0.816539 -1.703468
v -0.003902 0.816539 -2.014849
v -1.473671 0.816539 -1.462304
v -1.887434 0.816540 0.811597
v -1.991409 0.816539 -0.403296
v 1.158901 0.816540 1.718398
v -0.003902 0.816540 2.029778
v 1.465866 0.816539 1.477233
v 1.158901 0.816539 -1.703469
v 1.879629 0.816539 -0.796668
v 1.983604 0.816539 0.418226
v -0.414663 0.816539 -1.980042
v 0.800230 0.816539 -1.876067
v -1.714836 0.816540 1.170268
v -1.166706 0.816540 1.718398
v -2.026216 0.816539 0.007465
v 0.406858 0.816540 1.994971
v -0.808035 0.816540 1.890996
v 1.707031 0.816539 -1.155339
v 2.018411 0.816539 0.007465
v -1.714836 0.816539 -1.155339
v 1.707031 0.816540 1.170268
vt 0.077137 0.689769
vt 0.001031 0.627462
vt 0.077770 0.628358
vt 0.078777 0.434414
vt 0.003407 0.499829
vt 0.002045 0.435771
vt 0.076917 0.750000
vt 0.000393 0.689326
vt 0.443148 0.628358
vt 0.367424 0.564229
vt 0.444156 0.565587
vt 0.077770 0.871643
vt 0.002045 0.935771
vt 0.001031 0.872538
vt 0.442516 0.189769
vt 0.366409 0.127462
vt 0.443148 0.128358
vt 0.444156 0.934413
vt 0.368786 0.999829
vt 0.367424 0.935771
vt 0.442295 0.250000
vt 0.365772 0.189326
vt 0.076917 0.250000
vt 0.000393 0.310674
vt 0.000171 0.250000
vt 0.077770 0.128358
vt 0.002045 0.064229
vt 0.078777 0.065587
vt 0.443148 0.371642
vt 0.367424 0.435771
vt 0.366409 0.372538
vt 0.078777 0.565587
vt 0.003408 0.500171
vt 0.080130 0.501996
vt 0.077137 0.310231
vt 0.001031 0.372538
vt 0.442516 0.689769
vt 0.366409 0.627462
vt 0.442295 0.750000
vt 0.365772 0.810674
vt 0.365549 0.750000
vt 0.078777 0.934413
vt 0.003407 0.999829
vt 0.365772 0.689326
vt 0.444156 0.065587
vt 0.368786 0.000171
vt 0.445508 0.001996
vt 0.442516 0.810231
vt 0.366409 0.872538
vt 0.077137 0.189769
vt 0.001031 0.127462
vt 0.444156 0.434413
vt 0.368786 0.499829
vt 0.000393 0.189326
vt 0.000393 0.810674
vt 0.000171 0.750000
vt 0.002045 0.564229
vt 0.077770 0.371643
vt 0.368786 0.500171
vt 0.445508 0.501996
vt 0.077137 0.810231
vt 0.365772 0.310674
vt 0.365549 0.250000
vt 0.367424 0.064229
vt 0.443148 0.871643
vt 0.003407 0.000171
vt 0.080130 0.001996
vt 0.442516 0.310231
vt 0.585095 0.309407
vt 0.221335 0.068108
vt 0.222668 0.005387
vt 0.585719 0.869979
vt 0.585720 0.130021
vt 0.586713 0.068108
vt 0.584878 0.250000
vt 0.219717 0.809407
vt 0.586713 0.568108
vt 0.588047 0.505387
vt 0.220341 0.369979
vt 0.220341 0.630021
vt 0.221335 0.568108
vt 0.219499 0.750000
vt 0.219499 0.250000
vt 0.219717 0.190593
vt 0.586713 0.431892
vt 0.445508 0.498004
vt 0.220341 0.130021
vt 0.585095 0.809407
vt 0.588047 0.005387
vt 0.584878 0.750000
vt 0.585095 0.690593
vt 0.221335 0.931892
vt 0.080130 0.998004
vt 0.585719 0.630021
vt 0.219717 0.309407
vt 0.222668 0.505387
vt 0.585720 0.369979
vt 0.585095 0.190593
vt 0.586713 0.931892
vt 0.445508 0.998004
vt 0.220341 0.869979
vt 0.219717 0.690593
vt 0.221335 0.431892
vt 0.080130 0.498004
vt 0.362297 0.691416
vt 0.362912 0.631684
vt 0.363892 0.429370
vt 0.222668 0.494613
vt 0.362082 0.750000
vt 0.728291 0.631684
vt 0.729270 0.570630
vt 0.362912 0.868316
vt 0.727675 0.191416
vt 0.728291 0.131684
vt 0.729271 0.929370
vt 0.588047 0.994613
vt 0.727461 0.250000
vt 0.362082 0.250000
vt 0.362912 0.131684
vt 0.363892 0.070630
vt 0.728291 0.368316
vt 0.363892 0.570630
vt 0.365207 0.508778
vt 0.362297 0.308584
vt 0.727675 0.691416
vt 0.727460 0.750000
vt 0.363892 0.929370
vt 0.222668 0.994613
vt 0.729271 0.070630
vt 0.730586 0.008778
vt 0.727675 0.808584
vt 0.362297 0.191416
vt 0.729271 0.429370
vt 0.588047 0.494613
vt 0.362912 0.368316
vt 0.730586 0.508778
vt 0.362297 0.808584
vt 0.728291 0.868316
vt 0.365207 0.008778
vt 0.727675 0.308584
vt 0.365207 0.491222
vt 0.730586 0.991222
vt 0.365207 0.991222
vt 0.730586 0.491222
vn 0.5281 -0.0536 0.8475
vn 0.3458 -0.0530 0.9368
vn 0.3457 -0.0530 0.9369
vn -0.1704 -0.0526 0.9840
vn 0.0000 -0.0524 0.9986
vn -0.1705 -0.0526 0.9840
vn 0.7061 -0.0539 0.7061
vn 0.5282 -0.0536 0.8474
vn 0.9369 -0.0530 -0.3457
vn 0.9840 -0.0526 -0.1705
vn 0.9840 -0.0526 -0.1704
vn 0.9369 -0.0530 0.3457
vn 0.9840 -0.0526 0.1705
vn 0.9368 -0.0530 0.3458
vn -0.5281 -0.0536 -0.8475
vn -0.3458 -0.0530 -0.9368
vn -0.3457 -0.0530 -0.9369
vn 0.1704 -0.0526 -0.9840
vn -0.0000 -0.0524 -0.9986
vn 0.1705 -0.0526 -0.9840
vn -0.7061 -0.0539 -0.7061
vn -0.5282 -0.0536 -0.8474
vn -0.7061 -0.0539 0.7061
vn -0.5282 -0.0536 0.8474
vn -0.9369 -0.0530 0.3457
vn -0.9840 -0.0526 0.1705
vn -0.9840 -0.0526 0.1704
vn -0.9369 -0.0530 -0.3457
vn -0.9840 -0.0526 -0.1705
vn -0.9368 -0.0530 -0.3458
vn 0.1704 -0.0526 0.9840
vn -0.5281 -0.0536 0.8475
vn -0.3458 -0.0530 0.9368
vn 0.8475 -0.0536 -0.5281
vn 0.9368 -0.0530 -0.3458
vn 0.7061 -0.0539 -0.7061
vn 0.5282 -0.0536 -0.8474
vn 0.9840 -0.0526 0.1704
vn 0.9986 -0.0524 -0.0000
vn 0.8474 -0.0536 -0.5282
vn -0.1704 -0.0526 -0.9840
vn 0.5281 -0.0536 -0.8475
vn 0.3458 -0.0530 -0.9368
vn -0.8475 -0.0536 0.5281
vn -0.9368 -0.0530 0.3458
vn -0.9840 -0.0526 -0.1704
vn -0.9986 -0.0524 0.0000
vn -0.8474 -0.0536 0.5282
vn 0.8474 -0.0536 0.5282
vn 0.1705 -0.0526 0.9840
vn -0.3457 -0.0530 0.9369
vn 0.8475 -0.0536 0.5281
vn -0.8474 -0.0536 -0.5282
vn -0.1705 -0.0526 -0.9840
vn 0.3457 -0.0530 -0.9369
vn -0.8475 -0.0536 -0.5281
vn 0.5279 -0.0536 0.8476
vn 0.3455 -0.0530 0.9369
vn -0.1703 -0.0526 0.9840
vn 0.9369 -0.0530 -0.3455
vn 0.9840 -0.0526 -0.1703
vn 0.9369 -0.0530 0.3455
vn -0.5279 -0.0536 -0.8476
vn -0.3455 -0.0530 -0.9369
vn 0.1703 -0.0526 -0.9840
vn -0.9369 -0.0530 0.3455
vn -0.9840 -0.0526 0.1703
vn -0.9369 -0.0530 -0.3455
vn 0.1703 -0.0526 0.9840
vn -0.5279 -0.0536 0.8476
vn 0.8476 -0.0536 -0.5279
vn 0.9840 -0.0526 0.1703
vn -0.1703 -0.0526 -0.9840
vn 0.5279 -0.0536 -0.8476
vn -0.8476 -0.0536 0.5279
vn -0.9840 -0.0526 -0.1703
vn -0.3455 -0.0530 0.9369
vn 0.8476 -0.0536 0.5279
vn 0.3455 -0.0530 -0.9369
vn -0.8476 -0.0536 -0.5279
usemtl Clouds
s 1
f 66/1/1 45/2/2 65/3/3
f 67/4/4 47/5/5 48/6/6
f 69/7/7 44/8/8 66/1/1
f 71/9/9 39/10/10 70/11/11
f 72/12/12 41/13/13 42/14/14
f 75/15/15 59/16/16 74/17/17
f 76/18/18 61/19/19 62/20/20
f 78/21/21 58/22/22 75/15/15
f 79/23/23 50/24/24 35/25/23
f 82/26/25 53/27/26 81/28/27
f 83/29/28 55/30/29 56/31/30
f 85/32/31 47/33/5 68/34/5
f 80/35/32 49/36/33 50/24/24
f 87/37/34 38/38/35 71/9/9
f 88/39/36 64/40/37 33/41/36
f 73/42/38 40/43/39 41/13/13
f 88/39/36 37/44/40 87/37/34
f 91/45/41 61/46/19 77/47/19
f 89/48/42 63/49/43 64/40/37
f 93/50/44 52/51/45 82/26/25
f 84/52/46 54/53/47 55/30/29
f 79/23/23 51/54/48 93/50/44
f 69/7/7 43/55/49 34/56/7
f 65/3/3 46/57/50 85/32/31
f 86/58/51 48/6/6 49/36/33
f 70/11/11 40/59/39 90/60/39
f 95/61/52 42/14/14 43/55/49
f 78/21/21 57/62/53 36/63/21
f 74/17/17 60/64/54 91/45/41
f 92/65/55 62/20/20 63/49/43
f 81/28/27 54/66/47 94/67/47
f 96/68/56 56/31/30 57/62/53
f 128/69/56 83/29/28 96/68/56
f 104/70/27 94/67/47 126/71/47
f 124/72/55 76/18/18 92/65/55
f 101/73/17 91/45/41 123/74/41
f 114/75/21 96/68/56 78/21/21
f 127/76/52 72/12/12 95/61/52
f 99/77/11 90/60/39 122/78/39
f 119/79/51 67/4/4 86/58/51
f 97/80/3 85/32/31 118/81/31
f 109/82/7 95/61/52 69/7/7
f 103/83/23 93/50/44 125/84/44
f 117/85/46 94/86/47 84/52/46
f 125/84/44 82/26/25 116/87/25
f 121/88/42 92/65/55 89/48/42
f 123/74/41 77/47/19 113/89/19
f 106/90/36 87/37/34 120/91/34
f 111/92/38 90/93/39 73/42/38
f 106/90/36 89/48/42 88/39/36
f 120/91/34 71/9/9 110/94/9
f 115/95/32 86/58/51 80/35/32
f 118/81/31 68/34/5 108/96/5
f 105/97/28 84/52/46 83/29/28
f 116/87/25 81/28/27 104/70/27
f 103/83/23 80/35/32 79/23/23
f 114/75/21 75/15/15 112/98/15
f 102/99/18 77/100/19 76/18/18
f 112/98/15 74/17/17 101/73/17
f 100/101/12 73/42/38 72/12/12
f 110/94/9 70/11/11 99/77/11
f 109/82/7 66/1/1 107/102/1
f 98/103/4 68/104/5 67/4/4
f 107/102/1 65/3/3 97/80/3
f 12/105/57 97/80/3 13/106/58
f 16/107/59 108/108/5 98/103/4
f 6/109/7 107/102/1 12/105/57
f 2/110/60 99/77/11 1/111/61
f 10/112/62 111/92/38 100/101/12
f 26/113/63 101/73/17 27/114/64
f 30/115/65 113/116/19 102/99/18
f 4/117/21 112/98/15 26/113/63
f 5/118/23 115/95/32 103/83/23
f 20/119/66 104/70/27 21/120/67
f 24/121/68 117/85/46 105/97/28
f 14/122/69 108/96/5 15/123/5
f 18/124/70 119/79/51 115/95/32
f 3/125/71 110/94/9 2/110/60
f 7/126/36 121/88/42 106/90/36
f 9/127/72 122/128/39 111/92/38
f 7/126/36 120/91/34 3/125/71
f 28/129/73 113/89/19 29/130/19
f 32/131/74 124/72/55 121/88/42
f 19/132/75 116/87/25 20/119/66
f 23/133/76 126/134/47 117/85/46
f 5/118/23 125/84/44 19/132/75
f 6/109/7 127/76/52 109/82/7
f 13/106/58 118/81/31 14/122/69
f 17/135/77 98/103/4 119/79/51
f 1/111/61 122/78/39 8/136/39
f 11/137/78 100/101/12 127/76/52
f 4/117/21 128/69/56 114/75/21
f 27/114/64 123/74/41 28/129/73
f 31/138/79 102/99/18 124/72/55
f 21/120/67 126/71/47 22/139/47
f 25/140/80 105/97/28 128/69/56
f 66/1/1 44/8/8 45/2/2
f 67/4/4 68/104/5 47/5/5
f 69/7/7 34/56/7 44/8/8
f 71/9/9 38/38/35 39/10/10
f 72/12/12 73/42/38 41/13/13
f 75/15/15 58/22/22 59/16/16
f 76/18/18 77/100/19 61/19/19
f 78/21/21 36/63/21 58/22/22
f 79/23/23 80/35/32 50/24/24
f 82/26/25 52/51/45 53/27/26
f 83/29/28 84/52/46 55/30/29
f 85/32/31 46/57/50 47/33/5
f 80/35/32 86/58/51 49/36/33
f 87/37/34 37/44/40 38/38/35
f 88/39/36 89/48/42 64/40/37
f 73/42/38 90/93/39 40/43/39
f 88/39/36 33/41/36 37/44/40
f 91/45/41 60/64/54 61/46/19
f 89/48/42 92/65/55 63/49/43
f 93/50/44 51/54/48 52/51/45
f 84/52/46 94/86/47 54/53/47
f 79/23/23 35/25/23 51/54/48
f 69/7/7 95/61/52 43/55/49
f 65/3/3 45/2/2 46/57/50
f 86/58/51 67/4/4 48/6/6
f 70/11/11 39/10/10 40/59/39
f 95/61/52 72/12/12 42/14/14
f 78/21/21 96/68/56 57/62/53
f 74/17/17 59/16/16 60/64/54
f 92/65/55 76/18/18 62/20/20
f 81/28/27 53/27/26 54/66/47
f 96/68/56 83/29/28 56/31/30
f 128/69/56 105/97/28 83/29/28
f 104/70/27 81/28/27 94/67/47
f 124/72/55 102/99/18 76/18/18
f 101/73/17 74/17/17 91/45/41
f 114/75/21 128/69/56 96/68/56
f 127/76/52 100/101/12 72/12/12
f 99/77/11 70/11/11 90/60/39
f 119/79/51 98/103/4 67/4/4
f 97/80/3 65/3/3 85/32/31
f 109/82/7 127/76/52 95/61/52
f 103/83/23 79/23/23 93/50/44
f 117/85/46 126/134/47 94/86/47
f 125/84/44 93/50/44 82/26/25
f 121/88/42 124/72/55 92/65/55
f 123/74/41 91/45/41 77/47/19
f 106/90/36 88/39/36 87/37/34
f 111/92/38 122/128/39 90/93/39
f 106/90/36 121/88/42 89/48/42
f 120/91/34 87/37/34 71/9/9
f 115/95/32 119/79/51 86/58/51
f 118/81/31 85/32/31 68/34/5
f 105/97/28 117/85/46 84/52/46
f 116/87/25 82/26/25 81/28/27
f 103/83/23 115/95/32 80/35/32
f 114/75/21 78/21/21 75/15/15
f 102/99/18 113/116/19 77/100/19
f 112/98/15 75/15/15 74/17/17
f 100/101/12 111/92/38 73/42/38
f 110/94/9 71/9/9 70/11/11
f 109/82/7 69/7/7 66/1/1
f 98/103/4 108/108/5 68/104/5
f 107/102/1 66/1/1 65/3/3
f 12/105/57 107/102/1 97/80/3
f 16/107/59 15/141/5 108/108/5
f 6/109/7 109/82/7 107/102/1
f 2/110/60 110/94/9 99/77/11
f 10/112/62 9/127/72 111/92/38
f 26/113/63 112/98/15 101/73/17
f 30/115/65 29/142/19 113/116/19
f 4/117/21 114/75/21 112/98/15
f 5/118/23 18/124/70 115/95/32
f 20/119/66 116/87/25 104/70/27
f 24/121/68 23/133/76 117/85/46
f 14/122/69 118/81/31 108/96/5
f 18/124/70 17/135/77 119/79/51
f 3/125/71 120/91/34 110/94/9
f 7/126/36 32/131/74 121/88/42
f 9/127/72 8/143/39 122/128/39
f 7/126/36 106/90/36 120/91/34
f 28/129/73 123/74/41 113/89/19
f 32/131/74 31/138/79 124/72/55
f 19/132/75 125/84/44 116/87/25
f 23/133/76 22/144/47 126/134/47
f 5/118/23 103/83/23 125/84/44
f 6/109/7 11/137/78 127/76/52
f 13/106/58 97/80/3 118/81/31
f 17/135/77 16/107/59 98/103/4
f 1/111/61 99/77/11 122/78/39
f 11/137/78 10/112/62 100/101/12
f 4/117/21 25/140/80 128/69/56
f 27/114/64 101/73/17 123/74/41
f 31/138/79 30/115/65 102/99/18
f 21/120/67 104/70/27 126/71/47
f 25/140/80 24/121/68 105/97/28
